<svg width="30" height="30" viewBox="0 0 30 30" fill="none" xmlns="http://www.w3.org/2000/svg">
<path d="M24.1517 6.95273C23.9619 6.85462 23.7771 6.74706 23.598 6.63047C23.0773 6.2862 22.5998 5.88056 22.1759 5.42227C21.1154 4.20879 20.7193 2.97773 20.5734 2.11582H20.5793C20.4574 1.40039 20.5078 0.9375 20.5154 0.9375H15.6849V19.616C15.6849 19.8668 15.6849 20.1146 15.6744 20.3596C15.6744 20.39 15.6715 20.4182 15.6697 20.451C15.6697 20.4645 15.6697 20.4785 15.6668 20.4926C15.6668 20.4961 15.6668 20.4996 15.6668 20.5031C15.6158 21.1733 15.401 21.8207 15.0412 22.3884C14.6813 22.956 14.1875 23.4266 13.6031 23.7586C12.994 24.1051 12.3052 24.2868 11.6045 24.2859C9.35387 24.2859 7.52985 22.4508 7.52985 20.1844C7.52985 17.918 9.35387 16.0828 11.6045 16.0828C12.0305 16.0824 12.4539 16.1495 12.859 16.2814L12.8648 11.3631C11.6351 11.2042 10.3859 11.302 9.19589 11.6501C8.00588 11.9982 6.90093 12.5892 5.95075 13.3857C5.11817 14.1091 4.41822 14.9723 3.88239 15.9363C3.67848 16.2879 2.90915 17.7006 2.81598 19.9934C2.75739 21.2947 3.14821 22.643 3.33454 23.2002V23.2119C3.45173 23.54 3.90583 24.6598 4.64587 25.6037C5.24261 26.3609 5.94764 27.026 6.73825 27.5777V27.566L6.74997 27.5777C9.08844 29.1668 11.6812 29.0625 11.6812 29.0625C12.13 29.0443 13.6336 29.0625 15.341 28.2533C17.2347 27.3563 18.3129 26.0197 18.3129 26.0197C19.0016 25.2211 19.5493 24.3111 19.9324 23.3285C20.3695 22.1795 20.5154 20.8014 20.5154 20.2506V10.3412C20.574 10.3764 21.3545 10.8926 21.3545 10.8926C21.3545 10.8926 22.4789 11.6133 24.2332 12.0826C25.4918 12.4166 27.1875 12.4869 27.1875 12.4869V7.6916C26.5933 7.75605 25.3869 7.56855 24.1517 6.95273Z" fill="black"/>
</svg>
